# FreeCAD v0.19 build24415 (Git) Arch module
# http://www.freecadweb.org
mtllib platypous-Wheel_HolderWheel_holder.mtl
o Wheel_holder
usemtl color_cccccc
v -25.0 50.0 42.5
v -25.0 -50.0 42.5
v 25.0 -50.0 42.5
v 25.0 50.0 42.5
v -25.0 -40.0 18.146503
v 25.0 -40.0 18.146503
v -25.0 40.0 18.146503
v 25.0 40.0 18.146503
v -25.0 27.5 37.5
v -25.0 27.5 -37.5
v -25.0 47.5 -37.5
v -25.0 -40.0 18.146503
v -25.0 -27.5 37.5
v -25.0 -47.5 -37.5
v -25.0 -27.5 -37.5
v 25.0 27.5 37.5
v 25.0 27.5 -37.5
v 25.0 47.5 -37.5
v 25.0 -27.5 37.5
v 25.0 -47.5 -37.5
v 25.0 -27.5 -37.5
v 12.557368 27.5 -19.75
v 9.32042 27.5 -23.607645
v 4.959292 27.5 -26.125544
v 14.279713 27.5 -15.017899
v 0.0 27.5 -27.0
v 14.279713 27.5 -9.982101
v -4.959292 27.5 -26.125544
v -9.32042 27.5 -23.607645
v -12.557368 27.5 -19.75
v -14.279713 27.5 -15.017899
v -14.279713 27.5 -9.982101
v 12.557368 27.5 -5.25
v 9.32042 27.5 -1.392356
v 4.959292 27.5 1.125543
v -0.0 27.5 2.0
v -4.959292 27.5 1.125543
v -9.32042 27.5 -1.392356
v -12.557368 27.5 -5.25
v 12.557368 -27.5 -5.25
v 9.32042 -27.5 -1.392356
v 4.959292 -27.5 1.125543
v 14.279713 -27.5 -9.982101
v -0.0 -27.5 2.0
v -4.959292 -27.5 1.125543
v -9.32042 -27.5 -1.392356
v 14.279713 -27.5 -15.017899
v 12.557368 -27.5 -19.75
v 9.32042 -27.5 -23.607645
v -12.557368 -27.5 -5.25
v 4.959292 -27.5 -26.125544
v -14.279713 -27.5 -9.982101
v 0.0 -27.5 -27.0
v -4.959292 -27.5 -26.125544
v -9.32042 -27.5 -23.607645
v -12.557368 -27.5 -19.75
v -14.279713 -27.5 -15.017899
vn 0.0 0.0 1.0
vn -0.0 0.0 1.0
vn 0.0 -0.9250509142875671 -0.37984317541122437
vn 0.0 -0.9250509142875671 -0.37984317541122437
vn 0.0 0.9250509142875671 -0.37984317541122437
vn 0.0 0.9250509142875671 -0.37984317541122437
vn -1.0 0.0 0.0
vn -1.0 0.0 0.0
vn -1.0 0.0 0.0
vn -1.0 0.0 0.0
vn -1.0 0.0 0.0
vn -1.0 0.0 0.0
vn -1.0 0.0 0.0
vn -1.0 0.0 -0.0
vn 1.0 -0.0 0.0
vn 1.0 0.0 0.0
vn 1.0 0.0 0.0
vn 1.0 0.0 0.0
vn 1.0 0.0 0.0
vn 1.0 0.0 0.0
vn 1.0 0.0 0.0
vn 1.0 0.0 -0.0
vn 0.0 -0.9910391569137573 0.13357160985469818
vn 0.0 -0.9910391569137573 0.13357160985469818
vn 0.0 0.9910391569137573 0.13357160985469818
vn -0.0 0.9910391569137573 0.13357160985469818
vn 0.0 0.0 -1.0
vn 0.0 0.0 -1.0
vn 0.0 -1.0 -0.0
vn 0.0 -1.0 0.0
vn 0.0 -1.0 -0.0
vn 0.0 -1.0 0.0
vn 0.0 -1.0 0.0
vn 0.0 -1.0 0.0
vn 0.0 -1.0 0.0
vn 0.0 -1.0 0.0
vn 0.0 -1.0 -0.0
vn 0.0 -1.0 -0.0
vn 0.0 -1.0 -0.0
vn 0.0 -1.0 0.0
vn 0.0 -1.0 0.0
vn 0.0 -1.0 0.0
vn 0.0 -1.0 0.0
vn 0.0 -1.0 -0.0
vn 0.0 -1.0 0.0
vn 0.0 -1.0 0.0
vn 0.0 -1.0 0.0
vn 0.0 -1.0 0.0
vn 0.0 -1.0 0.0
vn 0.0 -1.0 0.0
vn 0.0 0.0 -1.0
vn 0.0 0.0 -1.0
vn 0.0 1.0 -0.0
vn -0.0 1.0 0.0
vn 0.0 1.0 -0.0
vn 0.0 1.0 -0.0
vn -0.0 1.0 0.0
vn 0.0 1.0 -0.0
vn 0.0 1.0 -0.0
vn 0.0 1.0 0.0
vn 0.0 1.0 0.0
vn 0.0 1.0 -0.0
vn -0.0 1.0 0.0
vn 0.0 1.0 -0.0
vn -0.0 1.0 0.0
vn 0.0 1.0 -0.0
vn -0.0 1.0 0.0
vn 0.0 1.0 0.0
vn 0.0 1.0 0.0
vn 0.0 1.0 0.0
vn 0.0 1.0 0.0
vn 0.0 1.0 0.0
vn 0.0 1.0 0.0
vn 0.0 1.0 0.0
vn 0.0 0.0 -1.0
vn 0.0 0.0 -1.0
vn 0.17364807426929474 -8.524542228145239e-17 -0.9848077893257141
vn 0.17364807426929474 0.0 -0.9848077893257141
vn 0.5 0.0 -0.866025447845459
vn 0.5 0.0 -0.866025447845459
vn 0.7660444378852844 0.0 -0.642787516117096
vn 0.7660444378852844 0.0 -0.642787516117096
vn 0.9396925568580627 0.0 -0.3420202136039734
vn 0.9396925568580627 0.0 -0.3420202136039734
vn 1.0 0.0 0.0
vn 1.0 0.0 -0.0
vn 0.7660444974899292 -0.0 0.6427875757217407
vn 0.9396925568580627 0.0 0.3420202136039734
vn 0.9396925568580627 0.0 0.3420202136039734
vn 0.7660444974899292 0.0 0.6427875757217407
vn 0.1736481934785843 -0.0 0.9848077893257141
vn 0.5 0.0 0.866025447845459
vn 0.5 0.0 0.866025447845459
vn 0.1736481934785843 0.0 0.9848077893257141
vn -0.1736481934785843 0.0 0.9848077893257141
vn -0.1736481934785843 4.045966361740208e-17 0.9848077893257141
vn -0.7660444974899292 0.0 0.6427875757217407
vn -0.5 0.0 0.866025447845459
vn -0.5 0.0 0.866025447845459
vn -0.9396925568580627 0.0 0.3420202136039734
vn -0.7660444974899292 0.0 0.6427875757217407
vn -0.9396925568580627 0.0 0.3420202136039734
vn -1.0 -0.0 -0.0
vn -1.0 0.0 0.0
vn -0.9396925568580627 -0.0 -0.3420202136039734
vn -0.7660444378852844 0.0 -0.642787516117096
vn -0.9396925568580627 0.0 -0.3420202136039734
vn -0.7660444378852844 0.0 -0.642787516117096
vn -0.5 0.0 -0.866025447845459
vn -0.5 0.0 -0.866025447845459
vn -0.17364807426929474 -0.0 -0.9848077893257141
vn -0.17364807426929474 0.0 -0.9848077893257141
f 1//1 2//1 3//1 
f 1//2 3//2 4//2 
f 2//3 5//3 3//3 
f 3//4 5//4 6//4 
f 7//5 1//5 4//5 
f 7//6 4//6 8//6 
f 7//7 9//7 1//7 
f 10//8 7//8 11//8 
f 12//9 2//9 13//9 
f 14//10 12//10 15//10 
f 2//11 1//11 13//11 
f 13//12 1//12 9//12 
f 10//13 9//13 7//13 
f 13//14 15//14 12//14 
f 16//15 8//15 4//15 
f 8//16 17//16 18//16 
f 3//17 6//17 19//17 
f 6//18 20//18 21//18 
f 4//19 3//19 19//19 
f 4//20 19//20 16//20 
f 16//21 17//21 8//21 
f 21//22 19//22 6//22 
f 5//23 14//23 6//23 
f 6//24 14//24 20//24 
f 11//25 7//25 8//25 
f 11//26 8//26 18//26 
f 17//27 10//27 18//27 
f 10//28 11//28 18//28 
f 22//29 23//29 17//29 
f 24//30 17//30 23//30 
f 25//31 22//31 17//31 
f 26//32 17//32 24//32 
f 27//33 25//33 17//33 
f 10//34 28//34 29//34 
f 10//35 26//35 28//35 
f 10//36 17//36 26//36 
f 30//37 10//37 29//37 
f 31//38 10//38 30//38 
f 32//39 10//39 31//39 
f 16//40 33//40 27//40 
f 16//41 34//41 33//41 
f 16//42 35//42 34//42 
f 16//43 36//43 35//43 
f 16//44 27//44 17//44 
f 9//45 37//45 36//45 
f 9//46 38//46 37//46 
f 9//47 39//47 38//47 
f 9//48 32//48 39//48 
f 9//49 36//49 16//49 
f 9//50 10//50 32//50 
f 13//51 9//51 16//51 
f 13//52 16//52 19//52 
f 40//53 41//53 19//53 
f 42//54 19//54 41//54 
f 43//55 40//55 19//55 
f 44//56 13//56 19//56 
f 44//57 19//57 42//57 
f 45//58 13//58 44//58 
f 46//59 13//59 45//59 
f 21//60 47//60 43//60 
f 21//61 48//61 47//61 
f 21//62 43//62 19//62 
f 49//63 48//63 21//63 
f 50//64 13//64 46//64 
f 51//65 49//65 21//65 
f 52//66 13//66 50//66 
f 53//67 51//67 21//67 
f 15//68 54//68 53//68 
f 15//69 55//69 54//69 
f 15//70 56//70 55//70 
f 15//71 57//71 56//71 
f 15//72 52//72 57//72 
f 15//73 53//73 21//73 
f 15//74 13//74 52//74 
f 20//75 14//75 21//75 
f 14//76 15//76 21//76 
f 26//77 24//77 53//77 
f 53//78 24//78 51//78 
f 51//79 23//79 49//79 
f 24//80 23//80 51//80 
f 49//81 22//81 48//81 
f 23//82 22//82 49//82 
f 48//83 25//83 47//83 
f 22//84 25//84 48//84 
f 47//85 27//85 43//85 
f 25//86 27//86 47//86 
f 40//87 33//87 41//87 
f 43//88 33//88 40//88 
f 27//89 33//89 43//89 
f 33//90 34//90 41//90 
f 42//91 35//91 44//91 
f 41//92 35//92 42//92 
f 34//93 35//93 41//93 
f 35//94 36//94 44//94 
f 44//95 37//95 45//95 
f 36//96 37//96 44//96 
f 46//97 38//97 50//97 
f 45//98 38//98 46//98 
f 37//99 38//99 45//99 
f 50//100 39//100 52//100 
f 38//101 39//101 50//101 
f 39//102 32//102 52//102 
f 32//103 31//103 52//103 
f 52//104 31//104 57//104 
f 31//105 30//105 57//105 
f 56//106 30//106 55//106 
f 57//107 30//107 56//107 
f 30//108 29//108 55//108 
f 55//109 29//109 54//109 
f 29//110 28//110 54//110 
f 28//111 26//111 54//111 
f 54//112 26//112 53//112 
