# FreeCAD v0.19 build24415 (Git) Arch module
# http://www.freecadweb.org
mtllib platypous-WheelWheel-body.mtl
o Body001
usemtl color_cccccc
v 45.0 25.0 0.0
v 42.286167 25.0 15.390906
v 45.0 -25.0 -0.0
v 42.286167 -25.0 15.390906
v 34.472 25.0 28.925442
v 34.472 -25.0 28.925442
v 22.5 25.0 38.971142
v 22.5 -25.0 38.971142
v 7.814168 -25.0 44.316349
v 7.814168 25.0 44.316349
v -7.814168 25.0 44.316349
v -7.814168 -25.0 44.316349
v -22.5 25.0 38.971142
v -22.5 -25.0 38.971142
v -34.472 25.0 28.925442
v -34.472 -25.0 28.925442
v -42.286167 25.0 15.390906
v -42.286167 -25.0 15.390906
v -45.0 -25.0 0.0
v -45.0 25.0 0.0
v -42.286167 25.0 -15.390906
v -42.286167 -25.0 -15.390906
v -34.472 25.0 -28.925442
v -34.472 -25.0 -28.925442
v -22.5 25.0 -38.971142
v -22.5 -25.0 -38.971142
v -7.814168 25.0 -44.316349
v -7.814168 -25.0 -44.316349
v 7.814168 -25.0 -44.316349
v 7.814168 25.0 -44.316349
v 22.5 25.0 -38.971142
v 22.5 -25.0 -38.971142
v 34.472 25.0 -28.925442
v 34.472 -25.0 -28.925442
v 42.286167 25.0 -15.390906
v 42.286167 -25.0 -15.390906
v 14.095389 25.0 5.130302
v 15.0 25.0 0.0
v 15.0 -25.0 -0.0
v 14.095389 -25.0 5.130302
v 11.490666 25.0 9.641814
v 11.490666 -25.0 9.641814
v 7.5 25.0 12.990381
v 7.5 -25.0 12.990381
v 2.604723 -25.0 14.772117
v 2.604723 25.0 14.772117
v -2.604723 25.0 14.772117
v -2.604723 -25.0 14.772117
v -7.5 25.0 12.990381
v -7.5 -25.0 12.990381
v -11.490666 25.0 9.641814
v -11.490666 -25.0 9.641814
v -14.095389 25.0 5.130302
v -14.095389 -25.0 5.130302
v -15.0 -25.0 -0.0
v -15.0 25.0 0.0
v -14.095389 25.0 -5.130302
v -14.095389 -25.0 -5.130302
v -11.490666 25.0 -9.641814
v -11.490666 -25.0 -9.641814
v -7.5 25.0 -12.990381
v -7.5 -25.0 -12.990381
v -2.604723 25.0 -14.772117
v -2.604723 -25.0 -14.772117
v 2.604723 -25.0 -14.772117
v 2.604723 25.0 -14.772117
v 7.5 25.0 -12.990381
v 7.5 -25.0 -12.990381
v 11.490666 25.0 -9.641814
v 11.490666 -25.0 -9.641814
v 14.095389 25.0 -5.130302
v 14.095389 -25.0 -5.130302
v 45.0 25.0 0.0
v 15.0 25.0 0.0
v 45.0 -25.0 -0.0
v 15.0 -25.0 -0.0
vn 0.9848076701164246 -7.640521734364507e-17 0.17364823818206787
vn 0.9848076701164246 0.0 0.17364823818206787
vn 0.8660253882408142 0.0 0.4999999701976776
vn 0.8660253882408142 0.0 0.4999999701976776
vn 0.6427876353263855 0.0 0.7660444378852844
vn 0.3420202136039734 -0.0 0.9396925568580627
vn 0.6427876353263855 0.0 0.7660444378852844
vn 0.3420202136039734 0.0 0.9396925568580627
vn 0.0 0.0 1.0
vn 0.0 0.0 1.0
vn -0.3420202136039734 0.0 0.9396925568580627
vn -0.3420202136039734 0.0 0.9396925568580627
vn -0.6427876353263855 0.0 0.7660444378852844
vn -0.6427876353263855 0.0 0.7660444378852844
vn -0.8660253882408142 0.0 0.4999999701976776
vn -0.9848076701164246 0.0 0.17364823818206787
vn -0.8660253882408142 0.0 0.4999999701976776
vn -0.9848076701164246 0.0 0.17364823818206787
vn -0.9848076701164246 0.0 -0.17364823818206787
vn -0.9848076701164246 4.935379411370295e-17 -0.17364823818206787
vn -0.8660253882408142 0.0 -0.4999999701976776
vn -0.8660253882408142 -0.0 -0.4999999701976776
vn -0.6427876353263855 0.0 -0.7660444378852844
vn -0.6427876353263855 -0.0 -0.7660444378852844
vn -0.3420202136039734 0.0 -0.9396925568580627
vn 0.0 0.0 -1.0
vn -0.3420202136039734 -0.0 -0.9396925568580627
vn 0.0 0.0 -1.0
vn 0.3420202136039734 0.0 -0.9396925568580627
vn 0.3420202136039734 0.0 -0.9396925568580627
vn 0.6427876353263855 0.0 -0.7660444378852844
vn 0.6427876353263855 0.0 -0.7660444378852844
vn 0.8660253882408142 0.0 -0.4999999701976776
vn 0.8660253882408142 0.0 -0.4999999701976776
vn 0.9848076701164246 0.0 -0.17364823818206787
vn 0.9848076701164246 0.0 -0.17364823818206787
vn -0.9848077893257141 0.0 -0.1736481636762619
vn -0.9848077893257141 -0.0 -0.1736481636762619
vn -0.8660253286361694 -0.0 -0.5
vn -0.8660253286361694 0.0 -0.5
vn -0.6427876353263855 -0.0 -0.7660444378852844
vn -0.342020183801651 -0.0 -0.9396926164627075
vn -0.6427876353263855 0.0 -0.7660444378852844
vn -0.342020183801651 -0.0 -0.9396926164627075
vn 0.0 0.0 -1.0
vn 0.0 0.0 -1.0
vn 0.342020183801651 0.0 -0.9396926164627075
vn 0.342020183801651 0.0 -0.9396926164627075
vn 0.6427876353263855 0.0 -0.7660444378852844
vn 0.6427876353263855 0.0 -0.7660444378852844
vn 0.8660253286361694 0.0 -0.5
vn 0.9848077893257141 0.0 -0.1736481636762619
vn 0.8660253286361694 0.0 -0.5
vn 0.9848077893257141 4.93537775700907e-17 -0.1736481636762619
vn 0.9848077893257141 0.0 0.1736481636762619
vn 0.9848077893257141 0.0 0.1736481636762619
vn 0.8660253286361694 0.0 0.5
vn 0.8660253286361694 0.0 0.5
vn 0.6427876353263855 0.0 0.7660444378852844
vn 0.6427876353263855 0.0 0.7660444378852844
vn 0.342020183801651 0.0 0.9396926164627075
vn 0.0 0.0 1.0
vn 0.342020183801651 0.0 0.9396926164627075
vn 0.0 0.0 1.0
vn -0.342020183801651 0.0 0.9396926164627075
vn -0.342020183801651 0.0 0.9396926164627075
vn -0.6427876353263855 0.0 0.7660444378852844
vn -0.6427876353263855 0.0 0.7660444378852844
vn -0.8660253286361694 0.0 0.5
vn -0.8660253286361694 0.0 0.5
vn -0.9848077893257141 0.0 0.1736481636762619
vn -0.9848077893257141 -7.640519749131037e-17 0.1736481636762619
vn 0.0 1.0 0.0
vn 0.0 1.0 0.0
vn 0.0 1.0 0.0
vn 0.0 1.0 0.0
vn 0.0 1.0 0.0
vn 0.0 1.0 0.0
vn 0.0 1.0 0.0
vn 0.0 1.0 0.0
vn 0.0 1.0 0.0
vn 0.0 1.0 0.0
vn 0.0 1.0 0.0
vn 0.0 1.0 0.0
vn 0.0 1.0 0.0
vn 0.0 1.0 0.0
vn 0.0 1.0 0.0
vn 0.0 1.0 0.0
vn 0.0 1.0 0.0
vn 0.0 1.0 0.0
vn 0.0 1.0 0.0
vn 0.0 1.0 0.0
vn 0.0 1.0 0.0
vn -0.0 1.0 0.0
vn 0.0 1.0 0.0
vn 0.0 1.0 0.0
vn 0.0 1.0 0.0
vn -0.0 1.0 0.0
vn 0.0 1.0 0.0
vn 0.0 1.0 0.0
vn 0.0 1.0 0.0
vn 0.0 1.0 0.0
vn 0.0 1.0 0.0
vn 0.0 1.0 0.0
vn 0.0 1.0 0.0
vn 0.0 1.0 0.0
vn 0.0 1.0 0.0
vn 0.0 1.0 0.0
vn 0.0 -1.0 0.0
vn -0.0 -1.0 0.0
vn 0.0 -1.0 0.0
vn 0.0 -1.0 0.0
vn 0.0 -1.0 0.0
vn -0.0 -1.0 0.0
vn 0.0 -1.0 0.0
vn 0.0 -1.0 0.0
vn 0.0 -1.0 0.0
vn 0.0 -1.0 0.0
vn 0.0 -1.0 0.0
vn -0.0 -1.0 0.0
vn 0.0 -1.0 0.0
vn 0.0 -1.0 0.0
vn 0.0 -1.0 0.0
vn -0.0 -1.0 0.0
vn 0.0 -1.0 0.0
vn -0.0 -1.0 0.0
vn 0.0 -1.0 0.0
vn 0.0 -1.0 0.0
vn 0.0 -1.0 0.0
vn -0.0 -1.0 0.0
vn 0.0 -1.0 0.0
vn 0.0 -1.0 0.0
vn 0.0 -1.0 0.0
vn 0.0 -1.0 0.0
vn 0.0 -1.0 0.0
vn 0.0 -1.0 0.0
vn 0.0 -1.0 0.0
vn 0.0 -1.0 0.0
vn -0.0 -1.0 0.0
vn 0.0 -1.0 0.0
vn 0.0 -1.0 0.0
vn -0.0 -1.0 0.0
vn 0.0 -1.0 0.0
vn 0.0 -1.0 0.0
f 1//1 2//1 3//1 
f 3//2 2//2 4//2 
f 4//3 5//3 6//3 
f 2//4 5//4 4//4 
f 6//5 7//5 8//5 
f 8//6 7//6 9//6 
f 5//7 7//7 6//7 
f 7//8 10//8 9//8 
f 9//9 11//9 12//9 
f 10//10 11//10 9//10 
f 12//11 13//11 14//11 
f 11//12 13//12 12//12 
f 14//13 15//13 16//13 
f 13//14 15//14 14//14 
f 16//15 17//15 18//15 
f 18//16 17//16 19//16 
f 15//17 17//17 16//17 
f 17//18 20//18 19//18 
f 19//19 21//19 22//19 
f 20//20 21//20 19//20 
f 22//21 23//21 24//21 
f 21//22 23//22 22//22 
f 24//23 25//23 26//23 
f 23//24 25//24 24//24 
f 26//25 27//25 28//25 
f 28//26 27//26 29//26 
f 25//27 27//27 26//27 
f 27//28 30//28 29//28 
f 30//29 31//29 29//29 
f 29//30 31//30 32//30 
f 31//31 33//31 32//31 
f 32//32 33//32 34//32 
f 33//33 35//33 34//33 
f 34//34 35//34 36//34 
f 35//35 1//35 36//35 
f 36//36 1//36 3//36 
f 37//37 38//37 39//37 
f 37//38 39//38 40//38 
f 41//39 40//39 42//39 
f 41//40 37//40 40//40 
f 43//41 42//41 44//41 
f 43//42 44//42 45//42 
f 43//43 41//43 42//43 
f 46//44 43//44 45//44 
f 47//45 45//45 48//45 
f 47//46 46//46 45//46 
f 49//47 48//47 50//47 
f 49//48 47//48 48//48 
f 51//49 50//49 52//49 
f 51//50 49//50 50//50 
f 53//51 52//51 54//51 
f 53//52 54//52 55//52 
f 53//53 51//53 52//53 
f 56//54 53//54 55//54 
f 57//55 55//55 58//55 
f 57//56 56//56 55//56 
f 59//57 58//57 60//57 
f 59//58 57//58 58//58 
f 61//59 60//59 62//59 
f 61//60 59//60 60//60 
f 63//61 62//61 64//61 
f 63//62 64//62 65//62 
f 63//63 61//63 62//63 
f 66//64 63//64 65//64 
f 67//65 66//65 65//65 
f 67//66 65//66 68//66 
f 69//67 67//67 68//67 
f 69//68 68//68 70//68 
f 71//69 69//69 70//69 
f 71//70 70//70 72//70 
f 38//71 71//71 72//71 
f 38//72 72//72 39//72 
f 15//73 51//73 17//73 
f 13//74 49//74 15//74 
f 15//75 49//75 51//75 
f 17//76 53//76 20//76 
f 51//77 53//77 17//77 
f 11//78 47//78 13//78 
f 13//79 47//79 49//79 
f 53//80 56//80 20//80 
f 7//81 46//81 10//81 
f 10//82 46//82 11//82 
f 11//83 46//83 47//83 
f 20//84 57//84 21//84 
f 56//85 57//85 20//85 
f 57//86 23//86 21//86 
f 7//87 43//87 46//87 
f 57//88 59//88 23//88 
f 7//89 41//89 43//89 
f 59//90 61//90 23//90 
f 7//91 5//91 41//91 
f 63//92 25//92 61//92 
f 61//93 25//93 23//93 
f 41//94 2//94 37//94 
f 5//95 2//95 41//95 
f 63//96 27//96 25//96 
f 37//97 73//97 74//97 
f 74//98 73//98 71//98 
f 2//99 73//99 37//99 
f 66//100 30//100 63//100 
f 67//101 30//101 66//101 
f 63//102 30//102 27//102 
f 73//103 35//103 71//103 
f 67//104 31//104 30//104 
f 69//105 33//105 67//105 
f 71//106 33//106 69//106 
f 67//107 33//107 31//107 
f 35//108 33//108 71//108 
f 52//109 14//109 16//109 
f 50//110 14//110 52//110 
f 54//111 16//111 18//111 
f 54//112 52//112 16//112 
f 48//113 12//113 14//113 
f 48//114 14//114 50//114 
f 55//115 18//115 19//115 
f 55//116 54//116 18//116 
f 45//117 8//117 9//117 
f 45//118 9//118 12//118 
f 45//119 12//119 48//119 
f 58//120 19//120 22//120 
f 58//121 55//121 19//121 
f 44//122 8//122 45//122 
f 60//123 22//123 24//123 
f 60//124 58//124 22//124 
f 42//125 8//125 44//125 
f 6//126 8//126 42//126 
f 26//127 62//127 60//127 
f 26//128 60//128 24//128 
f 4//129 42//129 40//129 
f 4//130 6//130 42//130 
f 28//131 64//131 62//131 
f 28//132 65//132 64//132 
f 28//133 62//133 26//133 
f 75//134 40//134 76//134 
f 75//135 4//135 40//135 
f 29//136 65//136 28//136 
f 36//137 76//137 72//137 
f 36//138 75//138 76//138 
f 32//139 65//139 29//139 
f 32//140 68//140 65//140 
f 34//141 36//141 72//141 
f 34//142 68//142 32//142 
f 34//143 70//143 68//143 
f 34//144 72//144 70//144 
